<?xml version="1.0" standalone="no"?>
<svg xmlns:xlink="http://www.w3.org/1999/xlink" id="wave" style="transform:rotate(180deg); transition: 0.3s" viewBox="0 0 1440 100" version="1.1" xmlns="http://www.w3.org/2000/svg"><defs><linearGradient id="sw-gradient-0" x1="0" x2="0" y1="1" y2="0"><stop stop-color="rgba(247, 201, 201, 1)" offset="0%"/><stop stop-color="rgba(247, 201, 201, 1)" offset="100%"/></linearGradient></defs><path style="transform:translate(0, 0px); opacity:1" fill="url(#sw-gradient-0)" d="M0,70L48,63.3C96,57,192,43,288,40C384,37,480,43,576,50C672,57,768,63,864,56.7C960,50,1056,30,1152,21.7C1248,13,1344,17,1440,26.7C1536,37,1632,53,1728,50C1824,47,1920,23,2016,13.3C2112,3,2208,7,2304,20C2400,33,2496,57,2592,65C2688,73,2784,67,2880,60C2976,53,3072,47,3168,43.3C3264,40,3360,40,3456,35C3552,30,3648,20,3744,21.7C3840,23,3936,37,4032,46.7C4128,57,4224,63,4320,55C4416,47,4512,23,4608,21.7C4704,20,4800,40,4896,55C4992,70,5088,80,5184,70C5280,60,5376,30,5472,21.7C5568,13,5664,27,5760,40C5856,53,5952,67,6048,73.3C6144,80,6240,80,6336,73.3C6432,67,6528,53,6624,40C6720,27,6816,13,6864,6.7L6912,0L6912,100L6864,100C6816,100,6720,100,6624,100C6528,100,6432,100,6336,100C6240,100,6144,100,6048,100C5952,100,5856,100,5760,100C5664,100,5568,100,5472,100C5376,100,5280,100,5184,100C5088,100,4992,100,4896,100C4800,100,4704,100,4608,100C4512,100,4416,100,4320,100C4224,100,4128,100,4032,100C3936,100,3840,100,3744,100C3648,100,3552,100,3456,100C3360,100,3264,100,3168,100C3072,100,2976,100,2880,100C2784,100,2688,100,2592,100C2496,100,2400,100,2304,100C2208,100,2112,100,2016,100C1920,100,1824,100,1728,100C1632,100,1536,100,1440,100C1344,100,1248,100,1152,100C1056,100,960,100,864,100C768,100,672,100,576,100C480,100,384,100,288,100C192,100,96,100,48,100L0,100Z"/></svg>