<?xml version="1.0" standalone="no"?>
<svg xmlns:xlink="http://www.w3.org/1999/xlink" id="wave" style="transform:rotate(0deg); transition: 0.3s" viewBox="0 0 1440 100" version="1.1" xmlns="http://www.w3.org/2000/svg"><defs><linearGradient id="sw-gradient-0" x1="0" x2="0" y1="1" y2="0"><stop stop-color="rgba(255, 139, 167, 1)" offset="0%"/><stop stop-color="rgba(255, 139, 167, 1)" offset="100%"/></linearGradient></defs><path style="transform:translate(0, 0px); opacity:1" fill="url(#sw-gradient-0)" d="M0,30L48,35C96,40,192,50,288,48.3C384,47,480,33,576,28.3C672,23,768,27,864,38.3C960,50,1056,70,1152,65C1248,60,1344,30,1440,26.7C1536,23,1632,47,1728,61.7C1824,77,1920,83,2016,86.7C2112,90,2208,90,2304,90C2400,90,2496,90,2592,85C2688,80,2784,70,2880,68.3C2976,67,3072,73,3168,65C3264,57,3360,33,3456,28.3C3552,23,3648,37,3744,43.3C3840,50,3936,50,4032,41.7C4128,33,4224,17,4320,16.7C4416,17,4512,33,4608,36.7C4704,40,4800,30,4896,28.3C4992,27,5088,33,5184,40C5280,47,5376,53,5472,58.3C5568,63,5664,67,5760,65C5856,63,5952,57,6048,60C6144,63,6240,77,6336,70C6432,63,6528,37,6624,28.3C6720,20,6816,30,6864,35L6912,40L6912,100L6864,100C6816,100,6720,100,6624,100C6528,100,6432,100,6336,100C6240,100,6144,100,6048,100C5952,100,5856,100,5760,100C5664,100,5568,100,5472,100C5376,100,5280,100,5184,100C5088,100,4992,100,4896,100C4800,100,4704,100,4608,100C4512,100,4416,100,4320,100C4224,100,4128,100,4032,100C3936,100,3840,100,3744,100C3648,100,3552,100,3456,100C3360,100,3264,100,3168,100C3072,100,2976,100,2880,100C2784,100,2688,100,2592,100C2496,100,2400,100,2304,100C2208,100,2112,100,2016,100C1920,100,1824,100,1728,100C1632,100,1536,100,1440,100C1344,100,1248,100,1152,100C1056,100,960,100,864,100C768,100,672,100,576,100C480,100,384,100,288,100C192,100,96,100,48,100L0,100Z"/></svg>